<svg width="26" height="22" viewBox="0 0 26 22" fill="none" xmlns="http://www.w3.org/2000/svg">
<g clip-path="url(#clip0_25_1436)">
<path d="M2.9692 16.7876C1.11367 15.0542 0 12.8338 0 10.4106C0 4.87262 5.8214 0.384155 13 0.384155C20.1795 0.384155 26 4.87349 26 10.4106C26 15.9478 20.1795 20.438 13 20.438C10.7337 20.438 8.6008 19.9882 6.7444 19.2012L2.01153 21.6158L2.9692 16.7876ZM21.0565 15.8316C22.9961 14.3349 24.0647 12.41 24.0647 10.4098C24.0647 8.40862 22.997 6.48375 21.0565 4.98789C18.9289 3.34642 16.068 2.44249 13.0009 2.44249C9.93373 2.44249 7.072 3.34642 4.94433 4.98789C3.00647 6.48375 1.937 8.40862 1.937 10.4098C1.937 12.41 3.00387 14.3358 4.94433 15.8316C7.072 17.4731 9.93373 18.3762 13.0009 18.3762C16.068 18.3762 18.9289 17.4731 21.0565 15.8316Z" fill="#888585"/>
<path d="M12.914 3.94C13.706 3.94 14.396 4.066 14.984 4.318C15.572 4.57 16.028 4.93 16.352 5.398C16.688 5.866 16.856 6.424 16.856 7.072C16.856 7.768 16.7 8.35 16.388 8.818C16.088 9.274 15.68 9.622 15.164 9.862C14.66 10.102 14.096 10.258 13.472 10.33V12.256H11.978V9.556C12.854 9.424 13.532 9.262 14.012 9.07C14.504 8.878 14.846 8.638 15.038 8.35C15.242 8.062 15.344 7.708 15.344 7.288C15.344 6.868 15.248 6.508 15.056 6.208C14.876 5.908 14.6 5.68 14.228 5.524C13.856 5.368 13.382 5.29 12.806 5.29C12.014 5.29 11.366 5.512 10.862 5.956C10.37 6.388 10.076 6.982 9.98003 7.738L8.70203 7C8.83403 6.388 9.08603 5.854 9.45803 5.398C9.84203 4.93 10.322 4.57 10.898 4.318C11.486 4.066 12.158 3.94 12.914 3.94ZM12.698 13.84C13.046 13.84 13.328 13.948 13.544 14.164C13.76 14.38 13.868 14.662 13.868 15.01C13.868 15.358 13.76 15.64 13.544 15.856C13.328 16.072 13.046 16.18 12.698 16.18C12.35 16.18 12.068 16.072 11.852 15.856C11.636 15.64 11.528 15.358 11.528 15.01C11.528 14.662 11.636 14.38 11.852 14.164C12.068 13.948 12.35 13.84 12.698 13.84Z" fill="#888585"/>
</g>
<defs>
<clipPath id="clip0_25_1436">
<rect width="26" height="22" fill="white" transform="matrix(-1 0 0 1 26 0)"/>
</clipPath>
</defs>
</svg>
