<svg width="26" height="22" viewBox="0 0 26 22" fill="none" xmlns="http://www.w3.org/2000/svg">
<g clip-path="url(#clip0_25_1420)">
<path d="M23.0308 16.7876C24.8863 15.0543 26 12.8339 26 10.4107C26 4.87268 20.1786 0.384216 13 0.384216C5.82053 0.384216 0 4.87355 0 10.4107C0 15.9478 5.82053 20.438 13 20.438C15.2663 20.438 17.3992 19.9882 19.2556 19.2013L23.9885 21.6158L23.0308 16.7876ZM4.94347 15.8317C3.00387 14.3349 1.93527 12.4101 1.93527 10.4098C1.93527 8.40868 3.003 6.48382 4.94347 4.98795C7.07113 3.34648 9.932 2.44255 12.9991 2.44255C16.0663 2.44255 18.928 3.34648 21.0557 4.98795C22.9935 6.48382 24.063 8.40868 24.063 10.4098C24.063 12.4101 22.9961 14.3358 21.0557 15.8317C18.928 17.4732 16.0663 18.3762 12.9991 18.3762C9.932 18.3762 7.07113 17.4732 4.94347 15.8317Z" fill="white"/>
<path d="M8.38846 11.8632C9.1744 11.8632 9.81153 11.2261 9.81153 10.4402C9.81153 9.65422 9.1744 9.01709 8.38846 9.01709C7.60252 9.01709 6.96539 9.65422 6.96539 10.4402C6.96539 11.2261 7.60252 11.8632 8.38846 11.8632Z" fill="white"/>
<path d="M13 11.8632C13.7859 11.8632 14.423 11.2261 14.423 10.4402C14.423 9.65422 13.7859 9.01709 13 9.01709C12.214 9.01709 11.5769 9.65422 11.5769 10.4402C11.5769 11.2261 12.214 11.8632 13 11.8632Z" fill="white"/>
<path d="M17.6107 11.8623C18.3961 11.8623 19.0329 11.2256 19.0329 10.4401C19.0329 9.65468 18.3961 9.01794 17.6107 9.01794C16.8252 9.01794 16.1885 9.65468 16.1885 10.4401C16.1885 11.2256 16.8252 11.8623 17.6107 11.8623Z" fill="white"/>
</g>
<defs>
<clipPath id="clip0_25_1420">
<rect width="26" height="22" fill="white"/>
</clipPath>
</defs>
</svg>
